# xmcd
#
# Track frame offsets:
#	150
#	14887
#	29309
#	42209
#	55794
#	68487
#	85137
#	100114
#	117965
#	135065
#	150591
#	165966
#	183816
#	204469
#	221637
#	238566
#	254167
#	268165
#	283315
#	299516
#	314430
#	325156
#
# Disc length: 4506 seconds
#
# Revision: 1
# Processed by: cddbd v1.5.2PL0 Copyright (c) Steve Scherf et al.
# Submitted via: audiograbber 1.80
#
DISCID=3c119816
DTITLE=WE LOVE TO PARTY 2 - KK
DYEAR=1900
DGENRE=
TTITLE0=VELVET - FIX ME
TTITLE1=BASIC ELEMENT - TO YOU
TTITLE2=SOUNDBLUNTZ feat CHEYNE COATES - MAYBE YOU´LL BE LUCKY
TTITLE3=ALEX GAUDINO feat. CRYSTAL WATERS - DESTINATION CALABRIA
TTITLE4=MASON VSPRINCESS SUPERSTARS - PERFECT/EXCEEDER
TTITLE5=KNA CONNECTED - FIBS
TTITLE6=ERIC PRYDZ VS. FLOYD - PROPER EDUCATION
TTITLE7=MILLION STYLEZ - MISS FATTY
TTITLE8=JOJO - TOO LITTLE TOO LATE
TTITLE9=INFERNAL - I WON´T BE CRYING
TTITLE10=CASCADA - READY FOR LOVE
TTITLE11=SPOONFACE - HERE FOR YOU
TTITLE12=INEZ - WALK AWAY
TTITLE13=LUMIDEE feat. TONY SUNSHINE - SHE´S LIKE THE WIND
TTITLE14=COBOJSARNA - SANG OM INGENTING
TTITLE15=STARTING ROCK feat. DIVA AVARI - DON´T GO
TTITLE16=DJ TATANA feat. JOANNA - IF I COULD
TTITLE17=N EURO - LOVER ON THE LINE
TTITLE18=PETER LUTZ and DOMINICO - WHAT A FEELING
TTITLE19=DAVID GUETTA vs. THE EGG - LOVE DON´T LET ME GO
TTITLE20=DJ JOSÉ - STEPPING TO THE BEAT
TTITLE21=G-SPOTT - SADNESS
EXTD=
EXTT0=
EXTT1=
EXTT2=
EXTT3=
EXTT4=
EXTT5=
EXTT6=
EXTT7=
EXTT8=
EXTT9=
EXTT10=
EXTT11=
EXTT12=
EXTT13=
EXTT14=
EXTT15=
EXTT16=
EXTT17=
EXTT18=
EXTT19=
EXTT20=
EXTT21=
PLAYORDER=
